<svg width="384" height="384" viewBox="0 0 384 384" fill="none" xmlns="http://www.w3.org/2000/svg">
<rect x="0.619141" y="35.082" width="350" height="350" transform="rotate(-5.65075 0.619141 35.082)" fill="#4C908F"/>
<path opacity="0.5" fill-rule="evenodd" clip-rule="evenodd" d="M99 257.578L99 253.428L113.2 252.506L113.2 131.071L99 130.149L99 126L151.004 126L151.004 130.149L136.804 131.071L136.804 202.226L192.357 170.152L194.651 174.125L136.804 207.523L136.804 252.506L151.004 253.428L151.004 257.578L99 257.578Z" fill="white"/>
<path d="M188 257.578L188 253.428L202.2 252.506L202.2 131.071L188 130.149L188 126L240.004 126L240.004 130.149L225.804 131.071L225.804 251.584C235.824 252.26 242.678 252.599 246.366 252.599C249.747 252.599 252.698 252.506 255.218 252.322C257.8 252.138 260.136 251.738 262.226 251.123C264.377 250.509 266.16 249.863 267.574 249.187C269.049 248.511 270.432 247.466 271.723 246.052C273.014 244.577 274.059 243.163 274.858 241.81C275.657 240.397 276.702 237.692 277.993 233.696C279.284 229.639 280.421 225.06 281.404 219.958L284.539 219.958L284.539 257.578L188 257.578Z" fill="white"/>
</svg>
